# xmcd CD database file
#
# Track frame offsets:
#	150
#	15874
#	32770
#	49248
#	65776
#	84990
#	102103
#	121575
#	138313
#	155941
#
# Disc length: 2293 seconds
#
# Revision: 1
# Processed by: cddbd v1.5.2PL0 Copyright (c) Steve Scherf et al.
# Submitted via: CDex 1.79
#
DISCID=7a08f30a
DTITLE=Wade Bowen - The Given
DYEAR=2012
DGENRE=Country
TTITLE0=Saturday Night
TTITLE1=All That's Left
TTITLE2=A Battle Won
TTITLE3=Patch Of Bad Weather
TTITLE4=On My Way To Wonderful
TTITLE5=Say Anything
TTITLE6=You Ain't Got Me
TTITLE7=Beat Me Down
TTITLE8=To Live Is To Fly (featuring Guy Clark)
TTITLE9=Before These Walls Were Blue
EXTD=YEAR: 2012
EXTT0=
EXTT1=
EXTT2=
EXTT3=
EXTT4=
EXTT5=
EXTT6=
EXTT7=
EXTT8=
EXTT9=
PLAYORDER=
